<svg width="19" height="20" fill="none" xmlns="http://www.w3.org/2000/svg">
    <path d="m17.791 2.977.713-.733c.361-.38.39-.918.03-1.28l-.255-.253c-.322-.332-.869-.273-1.23.078l-.723.713 1.465 1.475zM6.902 12.752l1.924-.8 8.301-8.302-1.475-1.464-8.3 8.3-.83 1.866c-.098.234.156.488.38.4zm-3.545 6.25H14.09c1.816 0 2.87-1.064 2.87-3.066V6.218l-1.952 1.953v7.578c0 .87-.46 1.299-1.065 1.299H3.503c-.83 0-1.278-.43-1.278-1.299V5.555c0-.87.449-1.3 1.279-1.3h7.666l1.953-1.952H3.357C1.336 2.303.271 3.357.271 5.359v10.576c0 2.012 1.065 3.067 3.086 3.067z" fill="#fff"/>
</svg>
