<svg width="18" height="20" fill="none" xmlns="http://www.w3.org/2000/svg">
    <path d="M5.287 19.672h7.647c1.318 0 2.162-.782 2.223-2.11l.563-11.917h.87c.457 0 .8-.343.8-.791a.779.779 0 0 0-.8-.792h-3.648v-1.23c0-1.31-.826-2.074-2.258-2.074H7.519c-1.432 0-2.267.764-2.267 2.074v1.23h-3.63c-.448 0-.8.343-.8.792 0 .448.352.79.8.79h.879l.554 11.927c.061 1.327.896 2.1 2.232 2.1zm1.626-16.77c0-.404.281-.668.72-.668h2.927c.449 0 .73.264.73.668v1.16H6.913v-1.16zM5.48 18.072c-.457 0-.773-.325-.8-.817l-.544-11.61h9.922l-.527 11.61c-.026.492-.334.817-.8.817h-7.25zm1.178-1.3c.378 0 .615-.238.607-.58L7.01 7.577c-.01-.351-.255-.571-.607-.571-.369 0-.606.228-.589.58L6.06 16.2c.01.343.255.572.598.572zm2.452 0c.36 0 .607-.229.607-.572V7.578c0-.343-.246-.571-.607-.571-.36 0-.615.228-.615.571V16.2c0 .343.255.572.615.572zm2.444 0c.342 0 .588-.229.597-.572l.246-8.613c.018-.352-.22-.58-.588-.58-.352 0-.598.228-.607.571l-.246 8.613c-.018.343.22.58.598.58z" fill="#80868B"/>
</svg>
